0
SECTION
2
HEADER
9
$INSUNITS
70
4
9
$ACADVER
1
AC1014
9
$HANDSEED
5
FFFF
0
ENDSEC
0
SECTION
2
TABLES
0
TABLE
2
VPORT
5
8
100
AcDbSymbolTable
0
ENDTAB
0
TABLE
2
LTYPE
5
5
100
AcDbSymbolTable
0
LTYPE
5
14
100
AcDbSymbolTableRecord
100
AcDbLinetypeTableRecord
2
BYBLOCK
70
0
0
LTYPE
5
15
100
AcDbSymbolTableRecord
100
AcDbLinetypeTableRecord
2
BYLAYER
70
0
0
ENDTAB
0
TABLE
2
LAYER
5
2
100
AcDbSymbolTable
70
2
0
LAYER
5
50
100
AcDbSymbolTableRecord
100
AcDbLayerTableRecord
2
0
70
0
6
CONTINUOUS
0
ENDTAB
0
TABLE
2
STYLE
5
3
100
AcDbSymbolTable
70
1
0
STYLE
5
11
100
AcDbSymbolTableRecord
100
AcDbTextStyleTableRecord
2
STANDARD
70
0
0
ENDTAB
0
TABLE
2
VIEW
5
6
100
AcDbSymbolTable
70
0
0
ENDTAB
0
TABLE
2
UCS
5
7
100
AcDbSymbolTable
70
0
0
ENDTAB
0
TABLE
2
APPID
5
9
100
AcDbSymbolTable
70
2
0
APPID
5
12
100
AcDbSymbolTableRecord
100
AcDbRegAppTableRecord
2
ACAD
70
0
0
ENDTAB
0
TABLE
2
DIMSTYLE
5
A
100
AcDbSymbolTable
70
1
0
ENDTAB
0
TABLE
2
BLOCK_RECORD
5
1
100
AcDbSymbolTable
70
1
0
BLOCK_RECORD
5
1F
100
AcDbSymbolTableRecord
100
AcDbBlockTableRecord
2
*MODEL_SPACE
0
BLOCK_RECORD
5
1B
100
AcDbSymbolTableRecord
100
AcDbBlockTableRecord
2
*PAPER_SPACE
0
ENDTAB
0
ENDSEC
0
SECTION
2
BLOCKS
0
BLOCK
5
20
100
AcDbEntity
100
AcDbBlockBegin
2
*MODEL_SPACE
0
ENDBLK
5
21
100
AcDbEntity
100
AcDbBlockEnd
0
BLOCK
5
1C
100
AcDbEntity
100
AcDbBlockBegin
2
*PAPER_SPACE
0
ENDBLK
5
1D
100
AcDbEntity
100
AcDbBlockEnd
0
ENDSEC
0
SECTION
2
ENTITIES
0
LINE
5
100
100
AcDbEntity
8
OUTER_PROFILES
100
AcDbLine
10
247.71611697528411
20
252.90625975291169
30
0
11
290.81798413789045
21
90.4368672998703
31
0
0
SPLINE
5
101
100
AcDbEntity
8
OUTER_PROFILES
100
AcDbSpline
70
0
71
3
72
10
73
6
74
0
42
0.000000001
43
0.0000000001
44
0.0000000001
40
0
40
0
40
0
40
0
40
0.25078963144286326
40
0.25078963144286326
40
0.50157926288572452
40
0.50157926288572452
40
0.50157926288572452
40
0.50157926288572452
10
290.81798413789045
20
90.436867299870286
30
0
10
291.03234419500939
20
89.628852461094795
30
0
10
291.19407710990993
20
88.807785677766873
30
0
10
291.41025173860868
20
87.149889002764297
30
0
10
291.46446609406729
20
86.314802778408449
30
0
10
291.46446609406729
20
85.478837340265571
30
0
0
LINE
5
102
100
AcDbEntity
8
OUTER_PROFILES
100
AcDbLine
10
291.46446609406729
20
85.478837340265571
30
0
11
291.46446609406729
21
3.5355339059327306
31
0
0
SPLINE
5
103
100
AcDbEntity
8
OUTER_PROFILES
100
AcDbSpline
70
0
71
3
72
14
73
10
74
0
42
0.000000001
43
0.0000000001
44
0.0000000001
40
0
40
0
40
0
40
0
40
0.14004901821947954
40
0.14004901821947954
40
0.28180181854943864
40
0.28180181854943864
40
0.41808038668347414
40
0.41808038668347414
40
0.55713952963874325
40
0.55713952963874325
40
0.55713952963874325
40
0.55713952963874325
10
291.46446609406729
20
3.5355339059327306
30
0
10
291.46446609406729
20
3.068703845201135
30
0
10
291.37200609591667
20
2.6064632029436297
30
0
10
291.01067889558703
20
1.7393985262265232
30
0
10
290.74331855930029
20
1.3440744778520752
30
0
10
290.08208525672438
20
0.69470907300779317
30
0
10
289.69965179088422
20
0.44184582266073136
30
0
10
288.85150050768266
20
0.091157591064288113
30
0
10
288.3924626646521
20
0
30
0
10
287.92893218813452
20
0
30
0
0
LINE
5
104
100
AcDbEntity
8
OUTER_PROFILES
100
AcDbLine
10
287.92893218813452
20
-3.7516475359525438e-18
30
0
11
0
21
0
31
0
0
SPLINE
5
105
100
AcDbEntity
8
OUTER_PROFILES
100
AcDbSpline
70
0
71
3
72
14
73
10
74
0
42
0.000000001
43
0.0000000001
44
0.0000000001
40
0
40
0
40
0
40
0
40
0.14004901821948107
40
0.14004901821948107
40
0.28180181854944275
40
0.28180181854944275
40
0.41808038668347813
40
0.41808038668347813
40
0.55713952963874225
40
0.55713952963874225
40
0.55713952963874225
40
0.55713952963874225
10
0
20
0
30
0
10
-0.46683006073159561
20
0
30
0
10
-0.92907070298911876
20
0.092459998150644651
30
0
10
-1.7961353797062252
20
0.45378719848027771
30
0
10
-2.1914594280806554
20
0.72114753476711257
30
0
10
-2.840824832924973
20
1.3823808373430069
30
0
10
-3.0936880832719815
20
1.7648143031831864
30
0
10
-3.4443763148684603
20
2.6129655863847034
30
0
10
-3.5355339059327306
20
3.0720034294151688
30
0
10
-3.5355339059327306
20
3.5355339059327306
30
0
0
LINE
5
106
100
AcDbEntity
8
OUTER_PROFILES
100
AcDbLine
10
-3.5355339059327306
20
3.5355339059327302
30
0
11
-3.5355339058839164
21
88.000000000082167
31
0
0
SPLINE
5
107
100
AcDbEntity
8
OUTER_PROFILES
100
AcDbSpline
70
0
71
3
72
10
73
6
74
0
42
0.000000001
43
0.0000000001
44
0.0000000001
40
-0.21539539533591354
40
-0.21539539533591354
40
-0.21539539533591354
40
-0.21539539533591354
40
-0.10790110703053199
40
-0.10790110703053199
40
-0
40
-0
40
-0
40
-0
10
-5.5824639322069913
20
88.548012089694978
30
0
10
-5.2725940467839294
20
88.368130950946892
30
0
10
-4.9439761855632192
20
88.230026370773018
30
0
10
-4.2504897340775827
20
88.044490286310108
30
0
10
-3.8952042626523387
20
88.000000000082167
30
0
10
-3.5355339058838986
20
88.000000000082167
30
0
0
LINE
5
108
100
AcDbEntity
8
OUTER_PROFILES
100
AcDbLine
10
-5.5824639322069913
20
88.548012089694978
30
0
11
-14.304133917879653
21
93.610988527905405
31
0
0
SPLINE
5
109
100
AcDbEntity
8
OUTER_PROFILES
100
AcDbSpline
70
0
71
3
72
12
73
8
74
0
42
0.000000001
43
0.0000000001
44
0.0000000001
40
-0.58512783329127482
40
-0.58512783329127482
40
-0.58512783329127482
40
-0.58512783329127482
40
-0.35935529975271563
40
-0.35935529975271563
40
-0.16410626976607121
40
-0.16410626976607121
40
-0
40
-0
40
-0
40
-0
10
-17.136142716359792
20
98.549017191574649
30
0
10
-17.001723266260846
20
97.805758886063416
30
0
10
-16.801847061953463
20
97.060068944589148
30
0
10
-16.2643188280712
20
95.760223559863888
30
0
10
-15.942762042752143
20
95.179181751070274
30
0
10
-15.184117597300002
20
94.250820198895155
30
0
10
-14.777220256184087
20
93.885617697320129
30
0
10
-14.304133917879653
20
93.610988527905405
30
0
0
LINE
5
110
100
AcDbEntity
8
OUTER_PROFILES
100
AcDbLine
10
-17.136142716359792
20
98.549017191574649
30
0
11
-44.484306213176943
21
249.76782997890254
31
0
0
ARC
5
111
100
AcDbEntity
8
OUTER_PROFILES
100
AcDbCircle
10
-38.580084915642274
20
250.83561781819381
30
0
40
6.000000000000024
210
0
220
0
230
1
100
AcDbArc
50
159.54301879936332
51
190.25122822450055
0
LINE
5
112
100
AcDbEntity
8
OUTER_PROFILES
100
AcDbLine
10
-44.201694122476106
20
252.93264188234789
30
0
11
-27.215122622634883
21
298.46949020391037
31
0
0
ARC
5
113
100
AcDbEntity
8
OUTER_PROFILES
100
AcDbCircle
10
-21.593513415801038
20
296.37246613975634
30
0
40
6.0000000000000142
210
0
220
-0
230
1
100
AcDbArc
50
89.999999999989996
51
159.54301879936389
0
LINE
5
114
100
AcDbEntity
8
OUTER_PROFILES
100
AcDbLine
10
-21.59351341579999
20
302.37246613975634
30
0
11
225.09813345095768
21
302.37246613971297
31
0
0
ARC
5
115
100
AcDbEntity
8
OUTER_PROFILES
100
AcDbCircle
10
225.09813345095665
20
296.37246613971291
30
0
40
5.9999999999999831
210
0
220
-0
230
1
100
AcDbArc
50
20.456938716794802
51
89.999999999990237
0
LINE
5
116
100
AcDbEntity
8
OUTER_PROFILES
100
AcDbLine
10
230.71974421269644
20
298.46948603553921
30
0
11
247.71611697528411
21
252.90625975291169
31
0
0
CIRCLE
5
117
100
AcDbEntity
8
INTERIOR_PROFILES
100
AcDbCircle
10
19.120351107227194
20
225.48683060421126
30
0
40
2.1000000000000085
210
0
220
0
230
-1
0
CIRCLE
5
118
100
AcDbEntity
8
INTERIOR_PROFILES
100
AcDbCircle
10
-175.75098006037763
20
139.06056624577627
30
0
40
1.6000000000000014
210
0
220
0
230
-1
0
CIRCLE
5
119
100
AcDbEntity
8
INTERIOR_PROFILES
100
AcDbCircle
10
-175.75098006037763
20
249.88390741028888
30
0
40
1.6000000000000014
210
0
220
0
230
-1
0
CIRCLE
5
120
100
AcDbEntity
8
INTERIOR_PROFILES
100
AcDbCircle
10
7.5668860429498963
20
161.61193072487748
30
0
40
2.1000000000000085
210
0
220
0
230
-1
0
CIRCLE
5
121
100
AcDbEntity
8
INTERIOR_PROFILES
100
AcDbCircle
10
-27.750980232926388
20
249.88390741028894
30
0
40
1.6000000000000014
210
0
220
0
230
-1
0
CIRCLE
5
122
100
AcDbEntity
8
INTERIOR_PROFILES
100
AcDbCircle
10
-101.75098014666341
20
287.18623306993845
30
0
40
2.1000000000000085
210
0
220
0
230
-1
0
CIRCLE
5
123
100
AcDbEntity
8
INTERIOR_PROFILES
100
AcDbCircle
10
-27.750980232926246
20
139.06056624577633
30
0
40
1.6000000000000014
210
0
220
0
230
-1
0
CIRCLE
5
124
100
AcDbEntity
8
INTERIOR_PROFILES
100
AcDbCircle
10
-222.62231140055684
20
225.48683060421126
30
0
40
2.1000000000000085
210
0
220
0
230
-1
0
CIRCLE
5
125
100
AcDbEntity
8
INTERIOR_PROFILES
100
AcDbCircle
10
-101.75098014665193
20
117.68623306993635
30
0
40
1.6000000000000014
210
0
220
0
230
-1
0
CIRCLE
5
126
100
AcDbEntity
8
INTERIOR_PROFILES
100
AcDbCircle
10
-211.06884633627953
20
161.61193072487748
30
0
40
2.1000000000000085
210
0
220
0
230
-1
0
CIRCLE
5
127
100
AcDbEntity
8
INTERIOR_PROFILES
100
AcDbCircle
10
-101.75098014665194
20
159.68623306993632
30
0
40
1.5999999999999837
210
0
220
0
230
-1
0
CIRCLE
5
128
100
AcDbEntity
8
INTERIOR_PROFILES
100
AcDbCircle
10
-8.46446609406728
20
11.999999999999993
30
0
40
2.1500000000000008
210
0
220
0
230
-1
0
CIRCLE
5
129
100
AcDbEntity
8
INTERIOR_PROFILES
100
AcDbCircle
10
-8.4644660940672978
20
76.000000000000014
30
0
40
2.1499999999999986
210
0
220
0
230
-1
0
CIRCLE
5
130
100
AcDbEntity
8
INTERIOR_PROFILES
100
AcDbCircle
10
-279.46446609406729
20
76.000000000000014
30
0
40
2.1499999999999986
210
0
220
0
230
-1
0
CIRCLE
5
131
100
AcDbEntity
8
INTERIOR_PROFILES
100
AcDbCircle
10
-279.46446609406729
20
11.999999999999993
30
0
40
2.1500000000000008
210
0
220
0
230
-1
0
ENDSEC
0
SECTION
2
OBJECTS
0
DICTIONARY
5
C
100
AcDbDictionary
3
ACAD_GROUP
350
D
3
ACAD_MLINESTYLE
350
17
0
DICTIONARY
5
D
100
AcDbDictionary
0
DICTIONARY
5
1A
330
C
100
AcDbDictionary
0
DICTIONARY
5
17
100
AcDbDictionary
0
ENDSEC
0
EOF
